<mxfile host="app.diagrams.net" agent="Mozilla/5.0 (Windows NT 10.0; Win64; x64) AppleWebKit/537.36 (KHTML, like Gecko) Chrome/138.0.0.0 Safari/537.36" version="28.0.7">
  <diagram name="第 1 页" id="XmppmOgPtgCfnkkfk-B6">
    <mxGraphModel dx="3389" dy="2239" grid="1" gridSize="10" guides="1" tooltips="1" connect="1" arrows="1" fold="1" page="1" pageScale="1" pageWidth="827" pageHeight="1169" math="0" shadow="0">
      <root>
        <mxCell id="0" />
        <mxCell id="1" parent="0" />
        <mxCell id="BMXOzUqP9LRJ0RSU-JxT-1" value="链上抓取" style="rounded=0;whiteSpace=wrap;html=1;" parent="1" vertex="1">
          <mxGeometry x="320" y="470" width="120" height="60" as="geometry" />
        </mxCell>
        <mxCell id="BMXOzUqP9LRJ0RSU-JxT-2" value="社交媒体信息抓取" style="rounded=0;whiteSpace=wrap;html=1;" parent="1" vertex="1">
          <mxGeometry x="930" y="470" width="120" height="60" as="geometry" />
        </mxCell>
        <mxCell id="BMXOzUqP9LRJ0RSU-JxT-8" style="edgeStyle=orthogonalEdgeStyle;rounded=0;orthogonalLoop=1;jettySize=auto;html=1;entryX=0;entryY=0.5;entryDx=0;entryDy=0;" parent="1" source="BMXOzUqP9LRJ0RSU-JxT-4" target="BMXOzUqP9LRJ0RSU-JxT-6" edge="1">
          <mxGeometry relative="1" as="geometry" />
        </mxCell>
        <mxCell id="BMXOzUqP9LRJ0RSU-JxT-11" style="edgeStyle=orthogonalEdgeStyle;rounded=0;orthogonalLoop=1;jettySize=auto;html=1;" parent="1" source="BMXOzUqP9LRJ0RSU-JxT-4" edge="1">
          <mxGeometry relative="1" as="geometry">
            <mxPoint x="50" y="150" as="targetPoint" />
          </mxGeometry>
        </mxCell>
        <mxCell id="BMXOzUqP9LRJ0RSU-JxT-15" style="edgeStyle=orthogonalEdgeStyle;rounded=0;orthogonalLoop=1;jettySize=auto;html=1;exitX=0;exitY=0.5;exitDx=0;exitDy=0;entryX=1;entryY=0.5;entryDx=0;entryDy=0;" parent="1" source="BMXOzUqP9LRJ0RSU-JxT-4" target="BMXOzUqP9LRJ0RSU-JxT-13" edge="1">
          <mxGeometry relative="1" as="geometry" />
        </mxCell>
        <mxCell id="BMXOzUqP9LRJ0RSU-JxT-17" style="edgeStyle=orthogonalEdgeStyle;rounded=0;orthogonalLoop=1;jettySize=auto;html=1;entryX=0.5;entryY=0;entryDx=0;entryDy=0;" parent="1" source="BMXOzUqP9LRJ0RSU-JxT-4" target="BMXOzUqP9LRJ0RSU-JxT-16" edge="1">
          <mxGeometry relative="1" as="geometry" />
        </mxCell>
        <mxCell id="BMXOzUqP9LRJ0RSU-JxT-4" value="BSC" style="rounded=0;whiteSpace=wrap;html=1;" parent="1" vertex="1">
          <mxGeometry x="-10" y="200" width="120" height="60" as="geometry" />
        </mxCell>
        <mxCell id="BMXOzUqP9LRJ0RSU-JxT-9" style="edgeStyle=orthogonalEdgeStyle;rounded=0;orthogonalLoop=1;jettySize=auto;html=1;exitX=0.5;exitY=1;exitDx=0;exitDy=0;entryX=0.5;entryY=0;entryDx=0;entryDy=0;" parent="1" source="BMXOzUqP9LRJ0RSU-JxT-5" target="BMXOzUqP9LRJ0RSU-JxT-6" edge="1">
          <mxGeometry relative="1" as="geometry" />
        </mxCell>
        <mxCell id="BMXOzUqP9LRJ0RSU-JxT-5" value="Solana" style="rounded=0;whiteSpace=wrap;html=1;" parent="1" vertex="1">
          <mxGeometry x="320" y="10" width="120" height="60" as="geometry" />
        </mxCell>
        <mxCell id="BMXOzUqP9LRJ0RSU-JxT-18" style="edgeStyle=orthogonalEdgeStyle;rounded=0;orthogonalLoop=1;jettySize=auto;html=1;exitX=0.5;exitY=1;exitDx=0;exitDy=0;entryX=0.5;entryY=0;entryDx=0;entryDy=0;" parent="1" source="BMXOzUqP9LRJ0RSU-JxT-6" target="BMXOzUqP9LRJ0RSU-JxT-1" edge="1">
          <mxGeometry relative="1" as="geometry" />
        </mxCell>
        <mxCell id="BMXOzUqP9LRJ0RSU-JxT-6" value="流动池抓取" style="rounded=0;whiteSpace=wrap;html=1;" parent="1" vertex="1">
          <mxGeometry x="320" y="200" width="120" height="60" as="geometry" />
        </mxCell>
        <mxCell id="BMXOzUqP9LRJ0RSU-JxT-12" value="fourmeme" style="ellipse;whiteSpace=wrap;html=1;" parent="1" vertex="1">
          <mxGeometry x="-10" y="90" width="120" height="60" as="geometry" />
        </mxCell>
        <mxCell id="BMXOzUqP9LRJ0RSU-JxT-13" value="pancakeswapv2" style="ellipse;whiteSpace=wrap;html=1;" parent="1" vertex="1">
          <mxGeometry x="-180" y="200" width="120" height="60" as="geometry" />
        </mxCell>
        <mxCell id="BMXOzUqP9LRJ0RSU-JxT-21" style="edgeStyle=orthogonalEdgeStyle;rounded=0;orthogonalLoop=1;jettySize=auto;html=1;" parent="1" source="BMXOzUqP9LRJ0RSU-JxT-14" target="BMXOzUqP9LRJ0RSU-JxT-5" edge="1">
          <mxGeometry relative="1" as="geometry" />
        </mxCell>
        <mxCell id="BMXOzUqP9LRJ0RSU-JxT-14" value="pumpfun" style="ellipse;whiteSpace=wrap;html=1;" parent="1" vertex="1">
          <mxGeometry x="320" y="-130" width="120" height="60" as="geometry" />
        </mxCell>
        <mxCell id="BMXOzUqP9LRJ0RSU-JxT-16" value="pancakeswapv2" style="ellipse;whiteSpace=wrap;html=1;" parent="1" vertex="1">
          <mxGeometry x="-10" y="310" width="120" height="60" as="geometry" />
        </mxCell>
        <mxCell id="BMXOzUqP9LRJ0RSU-JxT-23" style="edgeStyle=orthogonalEdgeStyle;rounded=0;orthogonalLoop=1;jettySize=auto;html=1;entryX=1;entryY=0.5;entryDx=0;entryDy=0;" parent="1" source="BMXOzUqP9LRJ0RSU-JxT-19" target="BMXOzUqP9LRJ0RSU-JxT-5" edge="1">
          <mxGeometry relative="1" as="geometry" />
        </mxCell>
        <mxCell id="BMXOzUqP9LRJ0RSU-JxT-19" value="bonkfurn" style="ellipse;whiteSpace=wrap;html=1;" parent="1" vertex="1">
          <mxGeometry x="514" y="10" width="120" height="60" as="geometry" />
        </mxCell>
        <mxCell id="BMXOzUqP9LRJ0RSU-JxT-22" style="edgeStyle=orthogonalEdgeStyle;rounded=0;orthogonalLoop=1;jettySize=auto;html=1;entryX=0;entryY=0.5;entryDx=0;entryDy=0;" parent="1" source="BMXOzUqP9LRJ0RSU-JxT-20" target="BMXOzUqP9LRJ0RSU-JxT-5" edge="1">
          <mxGeometry relative="1" as="geometry" />
        </mxCell>
        <mxCell id="BMXOzUqP9LRJ0RSU-JxT-20" value="raydium pool v4" style="ellipse;whiteSpace=wrap;html=1;" parent="1" vertex="1">
          <mxGeometry x="150" y="10" width="120" height="60" as="geometry" />
        </mxCell>
        <mxCell id="BMXOzUqP9LRJ0RSU-JxT-26" style="edgeStyle=orthogonalEdgeStyle;rounded=0;orthogonalLoop=1;jettySize=auto;html=1;entryX=0.5;entryY=0;entryDx=0;entryDy=0;" parent="1" source="BMXOzUqP9LRJ0RSU-JxT-25" target="BMXOzUqP9LRJ0RSU-JxT-2" edge="1">
          <mxGeometry relative="1" as="geometry" />
        </mxCell>
        <mxCell id="BMXOzUqP9LRJ0RSU-JxT-25" value="推特抓取" style="rounded=0;whiteSpace=wrap;html=1;" parent="1" vertex="1">
          <mxGeometry x="930" y="320" width="120" height="60" as="geometry" />
        </mxCell>
        <mxCell id="6sRO785VDt2IlhKicBXf-1" value="信息源获取" style="rounded=0;whiteSpace=wrap;html=1;" vertex="1" parent="1">
          <mxGeometry x="320" y="620" width="756" height="60" as="geometry" />
        </mxCell>
        <mxCell id="6sRO785VDt2IlhKicBXf-2" style="edgeStyle=orthogonalEdgeStyle;rounded=0;orthogonalLoop=1;jettySize=auto;html=1;entryX=0.08;entryY=0.09;entryDx=0;entryDy=0;entryPerimeter=0;" edge="1" parent="1" source="BMXOzUqP9LRJ0RSU-JxT-1" target="6sRO785VDt2IlhKicBXf-1">
          <mxGeometry relative="1" as="geometry" />
        </mxCell>
        <mxCell id="6sRO785VDt2IlhKicBXf-3" style="edgeStyle=orthogonalEdgeStyle;rounded=0;orthogonalLoop=1;jettySize=auto;html=1;exitX=0.5;exitY=1;exitDx=0;exitDy=0;entryX=0.887;entryY=0.063;entryDx=0;entryDy=0;entryPerimeter=0;" edge="1" parent="1" source="BMXOzUqP9LRJ0RSU-JxT-2" target="6sRO785VDt2IlhKicBXf-1">
          <mxGeometry relative="1" as="geometry" />
        </mxCell>
      </root>
    </mxGraphModel>
  </diagram>
</mxfile>
